# xmcd
# 
# Track frame offsets:
#     150
#     13337
#     25335
#     44532
#     61237
#     73953
#     92463
#     108035
#     122686
#     138478
#     149562
# 
# Disc length: 2190
# 
# Revision: 0
# Processed by: cddbd v1.5.2PL0 Copyright (c) Steve Scherf et al.
# Submitted via: fre:ac v1.0.31
# 
DISCID=9f088c0b
DTITLE=輝＆輝 - 輝＆輝の芽
DYEAR=2013
DGENRE=
TTITLE0=ねぶたBAYASHI
TTITLE1=my favorite things
TTITLE2=風のとおり道
TTITLE3=津軽じょんから節
TTITLE4=さくら変奏曲
TTITLE5=マカロン
TTITLE6=笑いボヤ
TTITLE7=津軽じょんから節
TTITLE8=情熱大陸
TTITLE9=THE魂
TTITLE10=花火
EXTD=
EXTT0=
EXTT1=
EXTT2=
EXTT3=
EXTT4=
EXTT5=
EXTT6=
EXTT7=
EXTT8=
EXTT9=
EXTT10=
PLAYORDER=
